# xmcd CD database file
#
# Track frame offsets:
#	150
#	18495
#	35852
#	70470
#	90645
#	111075
#	121910
#	141915
#	166555
#	186030
#
# Disc length: 2693 seconds
#
# Revision: 1
# Processed by: cddbd v1.5.1PL0 Copyright (c) Steve Scherf et al.
# Submitted via: CDex 1.51
#
DISCID=850a830a
DTITLE=Various Artist - 仮面ライダークウガ　ソングコレクション2
DYEAR=2000
DGENRE=Anime
TTITLE0=田中昌之/THE MASKED RIDER KUUGA!
TTITLE1=橋本仁/Say Alright!
TTITLE2=坂井紀雄/究極の闇
TTITLE3=大塚よしたか/Love is my life
TTITLE4=MICKEY-T./装甲機GOURAM
TTITLE5=葵若葉/たんぽぽのおはな
TTITLE6=橋本仁/BEATCHASER 2000
TTITLE7=葛山信吾/It comes rain
TTITLE8=坂井紀雄/Rising your power to Gold
TTITLE9=橋本仁/Into the blue sky
EXTD=YEAR: 2000
EXTT0=
EXTT1=
EXTT2=
EXTT3=
EXTT4=
EXTT5=
EXTT6=
EXTT7=
EXTT8=
EXTT9=
PLAYORDER=
